<?xml version="1.0" standalone="no"?>
<!DOCTYPE svg PUBLIC "-//W3C//DTD SVG 20010904//EN"
 "http://www.w3.org/TR/2001/REC-SVG-20010904/DTD/svg10.dtd">
<svg version="1.0" xmlns="http://www.w3.org/2000/svg"
 width="200.000000pt" height="200.000000pt" viewBox="0 0 200.000000 200.000000"
 preserveAspectRatio="xMidYMid meet">

<g transform="translate(0.000000,200.000000) scale(0.100000,-0.100000)"
fill="#000000" stroke="none">
<path d="M889 1620 c-99 -17 -184 -82 -231 -177 -28 -58 -33 -78 -36 -164 l-4
-98 -57 -3 -56 -3 -3 -170 c-1 -95 2 -192 8 -222 28 -133 122 -250 250 -312
73 -35 78 -36 191 -36 113 0 116 1 191 38 130 64 221 182 248 322 6 35 10 127
8 220 l-3 160 -56 3 -56 3 -6 92 c-7 129 -28 179 -101 253 -45 44 -74 65 -111
77 -68 21 -121 27 -176 17z m178 -72 c58 -27 127 -106 144 -165 8 -26 14 -82
14 -123 l0 -75 -40 0 -40 0 -1 72 c-2 89 -9 120 -40 161 -35 45 -92 72 -153
72 -129 0 -200 -83 -201 -232 l0 -78 -41 0 -41 0 4 98 c3 84 8 104 33 150 43
79 111 128 194 141 62 10 117 3 168 -21z m-40 -128 c48 -29 63 -67 63 -160 l0
-80 -145 0 -145 0 0 73 c0 85 19 131 69 164 43 29 113 31 158 3z m323 -423 c0
-73 -5 -160 -11 -192 -37 -202 -211 -335 -420 -323 -162 10 -301 118 -349 274
-16 54 -20 94 -20 220 l0 154 400 0 400 0 0 -133z"/>
<path d="M887 980 c-35 -28 -44 -78 -22 -124 15 -31 15 -43 5 -85 -6 -28 -9
-55 -5 -61 8 -13 148 -13 161 0 7 7 7 28 1 64 -8 45 -7 61 7 91 32 67 -10 135
-85 135 -21 0 -47 -8 -62 -20z m91 -42 c17 -17 15 -48 -5 -70 -14 -15 -15 -26
-6 -63 11 -50 9 -55 -24 -55 -22 0 -24 3 -18 33 4 17 8 39 11 48 2 9 -5 26
-16 39 -23 26 -24 34 -10 61 12 21 50 25 68 7z"/>
</g>
</svg>
